<?xml version="1.0" standalone="no"?>
<!DOCTYPE svg PUBLIC "-//W3C//DTD SVG 20010904//EN"
 "http://www.w3.org/TR/2001/REC-SVG-20010904/DTD/svg10.dtd">
<svg version="1.0" xmlns="http://www.w3.org/2000/svg"
 width="128.000000pt" height="128.000000pt" viewBox="0 0 128.000000 128.000000"
 preserveAspectRatio="xMidYMid meet">

<g transform="translate(0.000000,128.000000) scale(0.100000,-0.100000)"
fill="#000000" stroke="none">
<path d="M371 1209 c-131 -25 -258 -124 -318 -247 -37 -74 -38 -79 -38 -187 0
-103 2 -114 32 -178 111 -234 404 -331 641 -212 l66 34 123 -117 c265 -252
312 -292 338 -292 33 0 65 33 65 67 0 29 -12 41 -277 293 l-152 145 37 74 c36
73 37 78 37 185 0 104 -2 115 -32 179 -92 193 -306 299 -522 256z m248 -78
c113 -43 215 -153 241 -261 24 -100 0 -235 -52 -304 -14 -18 -18 -13 -63 71
-26 50 -58 103 -71 119 l-23 29 -1 -55 c0 -30 -3 -79 -7 -109 l-6 -54 -23 28
-22 28 -15 -29 -15 -29 -18 38 c-10 20 -21 37 -25 37 -3 0 -18 -18 -33 -41
l-27 -40 -36 47 -36 47 -19 -26 c-58 -80 -52 -83 -78 47 -12 64 -26 119 -31
121 -4 3 -36 -42 -69 -100 -34 -58 -66 -103 -70 -100 -20 13 -50 119 -50 179
0 177 122 326 305 373 64 16 179 9 244 -16z"/>
<path d="M364 1088 c-49 -14 -73 -26 -81 -41 -31 -58 -47 -96 -58 -139 l-13
-47 36 -6 c21 -4 52 -9 71 -13 l34 -7 -2 -80 c-1 -43 -5 -83 -7 -87 -10 -16
14 -7 31 12 26 28 38 25 59 -15 19 -34 36 -46 36 -24 0 5 8 21 18 34 l17 23
22 -26 c16 -21 24 -24 33 -15 7 6 18 9 25 7 13 -5 25 56 25 127 0 36 2 38 38
44 62 10 67 16 72 94 l5 71 -50 34 c-116 79 -181 90 -311 54z m296 -139 l0
-31 -47 7 c-75 11 -82 20 -32 38 68 24 79 22 79 -14z m-264 4 c45 -15 47 -17
24 -24 -37 -10 -110 -10 -110 0 0 20 13 41 24 41 7 0 35 -8 62 -17z m102 -121
c-40 -7 -49 4 -30 37 l17 30 17 -32 c16 -31 16 -32 -4 -35z"/>
</g>
</svg>
